<svg height="56" viewBox="0 0 54 56" width="54" xmlns="http://www.w3.org/2000/svg"><path d="m0 0h54v56h-54z" fill="none"/><path d="m51 12s-12.9982.0005-13.0001.0005c.004.2493.0001.5353 0 .8964v4.1031h15.0001v30h-15.0001v.1027c.0002.4698 0 .8408-.0088 1.1234-.0137.4482-.0508.8173-.1168 1.1624-.0846.4407-.2148.8364-.3984 1.2103-.1948.3964-.4462.7557-.7473 1.068-.009.0093-.0199.0164-.029.0256.3948.1912.8322.3077 1.3003.3077h13c1.6569 0 3-1.3431 3-3v-34.0001c0-1.6569-1.3431-3-3-3zm-10.5 2.875c-.207 0-.375-.1679-.375-.375s.168-.375.375-.375.375.1679.375.375-.168.375-.375.375zm6.25-.125h-4.5c-.1375 0-.25-.1125-.25-.25s.1125-.25.25-.25h4.5c.1375 0 .25.1125.25.25s-.1125.25-.25.25zm-2.25 36.5c-.9666 0-1.75-.7835-1.75-1.75s.7834-1.75 1.75-1.75 1.75.7835 1.75 1.75-.7834 1.75-1.75 1.75zm1.13-1.75c0 .623-.5069 1.13-1.13 1.13s-1.13-.507-1.13-1.13.5069-1.13 1.13-1.13 1.13.5069 1.13 1.13zm-29.1059 1.0986c-.1835-.3735-.3138-.7695-.3984-1.2107-.066-.3444-.1031-.7136-.1169-1.1622-.0087-.2842-.0088-.6576-.0087-1.1302v-34.191c-.0001-.4727 0-.8461.0087-1.1309.0139-.4487.0511-.8177.1169-1.1617.0845-.441.2149-.837.3984-1.2106.1949-.3969.4465-.7563.7474-1.0681.1167-.121.2462-.2274.3762-.3327-.1238-.0002-.2413-.0007-.3839-.0006h-.1603s-12.2068 0-12.2068 0h-.1603c-.4458 0-.7985-.0002-1.0663.0085-.3805.0126-.6884.0453-.969.1031-.3395.0699-.6417.1763-.924.3254-.2925.1544-.5568.353-.7859.5905-.2289.2372-.4205.5113-.5696.8148-.1437.2924-.2463.6058-.3138.9579-.0556.2906-.0873.6098-.0995 1.0045-.0085.2766-.0083.6398-.0083 1.0996v.1722s0 33.8472 0 33.8472v.1721c-.0001.4598-.0002.8231.0082 1.0995.0121.394.0437.7132.0995 1.0046.0676.3522.1702.6655.3138.9578.1489.3032.3405.5773.5696.8148.2289.2374.4933.436.7859.5905.2823.1491.5845.2555.924.3253.2805.0577.5884.0906.969.1031.2398.0079.5475.0086.9294.0086h12.8013c.0911 0 .1643-.0004.247-.0006-.1301-.1053-.2596-.2117-.3762-.3327-.3013-.3123-.5529-.6718-.7474-1.0681zm-4.524-32.5986c0 1.1028-.8972 2-2 2h-6c-1.1028 0-2-.8972-2-2v-6c0-1.1028.8972-2 2-2h6c1.1028 0 2 .8972 2 2zm-.75-.1945c0 .1381-.1119.25-.25.25s-.25-.1119-.25-.25.1119-.25.25-.25.25.1119.25.25zm-1.75-5.3818c.5523 0 1-.4478 1-1s-.4477-1-1-1-1 .4477-1 1 .4478 1 1 1zm0-1.5c.2757 0 .5.2243.5.5s-.2243.5-.5.5-.5-.2243-.5-.5.2243-.5.5-.5zm-3 1.6262c0 1.1046-.8954 2-2 2s-2-.8954-2-2 .8954-2 2-2 2 .8954 2 2zm0 4.95c0 1.1046-.8954 2-2 2s-2-.8954-2-2 .8954-2 2-2 2 .8954 2 2zm5-2.5c0 1.1046-.8954 2-2 2s-2-.8954-2-2 .8954-2 2-2 2 .8954 2 2zm18.6249-4.5401c-.0055.5247-.436.9455-.9617.94h-4.3463c-.5179-.0054-.9365-.4231-.9418-.94-.0055-.5247.4162-.9544.9418-.9598h4.3472c.0063-.0001.0127-.0001.019 0 .5256.0054.9473.4352.9418.9598zm6.8668 37.7355c.0085-.2751.0085-.6357.0082-1.0922v-34.2062c.0002-.4566.0003-.8173-.0082-1.0923-.0121-.3942-.0436-.7133-.0993-1.0045-.0676-.3521-.1702-.6655-.3138-.9579-.1492-.3035-.3409-.5776-.5696-.8147-.2289-.2374-.4933-.436-.7859-.5905-.2822-.149-.5845-.2555-.9239-.3254-.2807-.0577-.5886-.0905-.9691-.1031-.2391-.0078-.5457-.0086-.9257-.0086h-.3009s-10.2068 0-10.2068 0h-.1603c-.0148 0-.0295 0-.044 0-.4251 0-.7634.0002-1.0224.0086-.3805.0126-.6884.0453-.969.1031-.3395.0699-.6417.1763-.9239.3254-.2925.1544-.5569.353-.7859.5905-.2289.2372-.4205.5113-.5696.8148-.1437.2924-.2463.6058-.3138.9579-.0556.2906-.0872.6098-.0995 1.0045-.0084.2766-.0083.6398-.0082 1.0996v34.1915c-.0001.4598-.0002.8231.0082 1.0995.0121.394.0437.7132.0995 1.0046.0676.3522.1702.6655.3138.9578.1489.3032.3405.5773.5696.8148.2289.2374.4933.436.7859.5905.2822.1491.5844.2555.9239.3253.2805.0577.5884.0906.969.1031.2398.0079.5475.0086.9294.0086h10.8013c.3819 0 .6896-.0007.9294-.0086.3806-.0126.6885-.0454.9691-.1031.3394-.0698.6417-.1762.9239-.3253.2928-.1547.5572-.3533.7859-.5905.2289-.2373.4205-.5114.5696-.8148.1437-.2927.2463-.606.3138-.9578.0557-.2911.0872-.6104.0993-1.0045zm-.9818-35.119v34.0272c.0002.4435.0005.7938-.0078 1.0615-.0104.3406-.0365.6103-.082.8481-.0507.2642-.126.4958-.2302.7079-.1036.2109-.2361.4007-.3936.5641-.1556.1614-.3359.2968-.5359.4025-.1981.1047-.4142.1802-.6609.231-.2244.0462-.4793.0727-.8019.0834-.2314.0076-.5284.0081-.8969.0081h-10.8013c-.3686 0-.6655-.0005-.8967-.0081-.3229-.0107-.5779-.0372-.8023-.0834-.2465-.0507-.4627-.1263-.6611-.2311-.1996-.1055-.3799-.2408-.5357-.4024-.1576-.1634-.29-.353-.3935-.564-.1042-.212-.1795-.4436-.2301-.7075-.0457-.2385-.0718-.5082-.0823-.8484-.0082-.2689-.0079-.6221-.0078-1.0693v-34.1919c-.0001-.4471-.0004-.8004.0078-1.0687.0106-.3412.0367-.611.0822-.8488.0507-.2642.1259-.4957.2302-.7078.1036-.2111.236-.4008.3936-.564.1559-.1617.3361-.297.5358-.4024.1982-.1047.4145-.1803.6611-.2311.2242-.0461.479-.0726.8017-.0833.2437-.008.5598-.0081.9953-.0081h.199s10.207 0 10.207 0h.1637s.137 0 .137 0c.3667 0 .6627.0005.8931.0081.3229.0106.5778.0371.8021.0833.2465.0507.4627.1263.6614.2312.1995.1053.3796.2406.5355.4022.1574.1632.2899.353.3934.5636.1042.2124.1796.4441.2302.7076.0456.2386.0717.5082.0821.8494.0084.2672.008.6175.0078 1.0615v.1795z" fill="#1d1d1f"/></svg>