<svg height="56" viewBox="0 0 38 56" width="38" xmlns="http://www.w3.org/2000/svg"><path d="m0 0h38v56h-38z" fill="none"/><path d="m16.7481 51.9553c-.1675.0174-.3495.029-.5559.0356-.2477.0081-.5544.009-.8396.009-.0397 0-.079-.0001-.1177-.0001h-10.4696c-.0387 0-.0781.0001-.1179.0001-.2852 0-.5917-.0009-.8395-.009-.4141-.0134-.731-.0463-1.0273-.1069-.3513-.0719-.6636-.1821-.955-.3372-.3002-.1597-.5716-.3653-.8068-.611s-.4321-.5291-.5851-.8425c-.1484-.3042-.254-.6304-.3228-.9974-.0579-.309-.0895-.6398-.1023-1.0729-.0088-.2966-.0086-.6735-.0086-1.006v-.1055s0-32.8232 0-32.8232v-.1055c-.0001-.3325-.0003-.7092.0086-1.0058.0128-.4333.0444-.7642.1023-1.0729.0687-.3668.1743-.693.3228-.9974.153-.3135.3498-.5969.5851-.8426.2352-.2458.5067-.4514.8068-.6111.2914-.155.6038-.2653.955-.337.2956-.0605.6125-.0935 1.0273-.1071.2433-.0078.543-.0089.8242-.0089h.1351.1049s10.1413 0 10.1413 0c-.0009.0252-.0034.0442-.0042.07-.0082.2714-.0089.6108-.0089.92h-10.2337s-.1345-.0001-.1345-.0001c-.2703 0-.5583.0009-.7922.0084-.3564.0116-.6219.0386-.8608.0875-.257.0524-.482.1313-.6882.241-.207.1102-.3943.2521-.5566.4217-.1647.1719-.3027.371-.4106.5922-.1089.2234-.1873.4673-.2394.7455-.0481.2563-.0745.54-.0858.92-.0085.2857-.0083.6479-.0082.9686v33.0425c-.0001.3282-.0004.6904.0082.976.0113.3801.0377.6638.0858.92.0522.2785.1305.5224.2394.7457.1079.221.246.4202.4105.592.1624.1697.3497.3115.5568.4218.2061.1097.4312.1886.6883.2412.2391.0489.5046.0758.8607.0873.2388.0078.5335.0085.8077.0085h.0582s.0596-.0001.0596-.0001h10.5292s.0581.0001.0581.0001c.1727 0 .3486-.001.5182-.0032.1406.2076.2944.4048.4675.5848.1271.1323.2677.2491.4098.3637zm-4.6706-41.4552h-4.1733c-.5046.0054-.9095.4352-.9042.9598.0052.5169.407.9346.9042.94h4.1724c.5046.0055.918-.4153.9233-.94s-.3995-.9544-.9042-.9598c-.006-.0001-.0121-.0001-.0182 0zm17.0086-4.0001c.5046 0 .9136.4253.9136.95s-.409.95-.9136.95h-4.1732c-.5046-.0003-.9134-.4258-.9131-.9505s.4095-.9498.9141-.9495h4.1731-.0008zm4.235-.5-.2085.0005h-12.3661s-.0861 0-.0861 0l-.3372.0018h-.0019c-.1212.0014-.2428.0029-.3478.0063-.3652.0121-.6374.0399-.8812.0898-.2701.0549-.5063.1374-.7236.2525-.2184.1159-.4166.2655-.5883.4441-.1735.1805-.3193.3899-.4333.6224-.114.2327-.1958.4863-.2501.7752-.0496.263-.0769.552-.0886.938-.0084.2786-.0082.6369-.0082.9474v36.8137c0 .3415-.0002.6995.0082.9785.0113.3837.0386.6725.0884.9369.0544.2894.1363.5433.2505.7766.1136.2319.2592.4412.433.6219.1717.1786.3699.3282.5891.4444.2167.1149.4528.1974.7215.252.2461.0502.5183.0778.8833.0897.2449.008.553.0084.8308.0084h12.4804s.0552 0 .0552 0l.3187-.002c.143-.0015.2621-.003.3665-.0064.3656-.0119.6377-.0395.8826-.0895.2699-.0548.5062-.1373.7236-.2524.2184-.1159.4166-.2655.5883-.4441.1738-.1807.3194-.39.4329-.622.1144-.2334.1962-.487.2505-.7759.0494-.2613.0767-.5504.0886-.9385.0044-.1497.0061-.3242.007-.5019l.0008-.4731v-36.7883l-.0008-.4719c-.0009-.1788-.0026-.3534-.0071-.5047-.0119-.3867-.0391-.6756-.0883-.9353-.0545-.2904-.1364-.5443-.2506-.7776-.1137-.2318-.2595-.4412-.433-.6216-.1718-.1786-.3699-.3282-.5891-.4444-.2167-.1149-.4528-.1974-.7215-.252-.2452-.0502-.5175-.0779-.8843-.0901-.2067-.0066-.4617-.0085-.7042-.0085m-.0001-.9999c.2535 0 .52.0021.7374.0091.4243.0141.7482.0477 1.0502.1096.364.074.6882.188.9908.3484.3128.1659.5961.3795.8415.6348.2454.2552.4508.5499.6103.875.1543.3152.2639.6524.335 1.0313.0594.3139.0917.6508.1053 1.0922.0046.1586.0065.3415.0075.5279 0 .0002.0002.0004.0002.0006s-.0002.0004-.0002.0006c.0008.1613.0008.3253.0008.4766v36.7881c0 .1515 0 .3156-.0008.4769 0 .0002.0002.0004.0002.0006s-.0002.0003-.0002.0006c-.0009.1862-.0029.369-.0075.5276-.0135.4413-.0459.7783-.1053 1.0925-.0711.3786-.1807.7158-.335 1.0306-.1595.326-.3649.6204-.6103.8756-.2454.2553-.5287.4689-.8412.6348-.303.1605-.6272.2745-.9915.3484-.3027.0618-.6266.0955-1.0499.1092-.1114.0037-.2384.0054-.367.0067-.0006 0-.001.0007-.0016.0007s-.0009-.0006-.0015-.0006c-.1384.0014-.2096.0021-.348.0022h-.0689s-.0004-.0002-.0005-.0002c-.0249 0-.051.0002-.0755.0002h-12.3906c-.2888 0-.609-.0006-.8634-.009-.4231-.0138-.747-.0474-1.05-.1092-.3639-.074-.6882-.188-.9908-.3484-.3128-.1659-.5961-.3795-.8415-.6348-.2454-.2552-.4508-.5496-.6103-.8753-.1543-.3152-.2639-.6524-.335-1.031-.0597-.3168-.0924-.6534-.1053-1.0922-.0089-.2972-.0086-.6812-.0086-1.0085v-36.7827c0-.3273-.0003-.7116.0086-1.0085.0132-.4388.0456-.776.1053-1.0925.0711-.3786.1808-.7158.335-1.0307.1595-.3254.3649-.6201.6103-.8753.2454-.2553.5287-.4689.8412-.6348.303-.1605.6272-.2745.9911-.3484.3021-.0618.626-.0955 1.05-.1096.1112-.0035.2398-.0052.368-.0067.0003 0 .0005-.0003.0008-.0003s.0005.0003.0008.0003c.117-.0013.2322-.0019.3492-.0019h.0683.0002.0002.0174c.0359 0 .0725-.0002.1079-.0002h.0376 12.2164c.0689-.0003.1403-.0005.2128-.0005z"/></svg>